<?xml version="1.0" encoding="UTF-8"?>
<svg version="1.1" xmlns="http://www.w3.org/2000/svg" width="103" height="104">
<path d="M0 0 C0.99 0 1.98 0 3 0 C4.00486895 2.95670218 5.00306024 5.91561577 6 8.875 C6.28617188 9.71675781 6.57234375 10.55851562 6.8671875 11.42578125 C7.13789062 12.23144531 7.40859375 13.03710938 7.6875 13.8671875 C7.93886719 14.61081543 8.19023438 15.35444336 8.44921875 16.12060547 C9 18 9 18 9 20 C9.68964844 20.18175781 10.37929688 20.36351563 11.08984375 20.55078125 C17.13703115 22.16834166 23.08816832 23.94180675 29 26 C29 26.99 29 27.98 29 29 C28.45472656 29.17015625 27.90945312 29.3403125 27.34765625 29.515625 C22.34737809 31.122552 17.5997776 32.99269732 12.84765625 35.23046875 C11 36 11 36 9 36 C8.81824219 36.60585938 8.63648438 37.21171875 8.44921875 37.8359375 C6.6328125 43.890625 4.81640625 49.9453125 3 56 C1.35 55.67 -0.3 55.34 -2 55 C-2.09796875 54.38253906 -2.1959375 53.76507813 -2.296875 53.12890625 C-3.27326467 47.59883716 -4.72611413 42.85903681 -7.1953125 37.8125 C-8 36 -8 36 -8 34 C-9.04607422 33.79890625 -9.04607422 33.79890625 -10.11328125 33.59375 C-13.15903526 32.96728909 -16.16978655 32.24974247 -19.1875 31.5 C-20.75564453 31.11328125 -20.75564453 31.11328125 -22.35546875 30.71875 C-25 30 -25 30 -27 29 C-26.73193359 27.08837891 -26.73193359 27.08837891 -26 25 C-23.16696073 23.92046293 -20.54792099 23.10095423 -17.625 22.375 C-16.07432656 21.970699 -14.52479026 21.56200519 -12.9765625 21.1484375 C-12.28643066 20.97489746 -11.59629883 20.80135742 -10.88525391 20.62255859 C-8.70470612 19.99511673 -8.70470612 19.99511673 -6 18 C-5.59367909 16.01354224 -5.27050453 14.00946222 -5 12 C-4.36694179 9.98910922 -3.70905938 7.98536627 -3 6 C-2.34 6 -1.68 6 -1 6 C-1.020625 5.195625 -1.04125 4.39125 -1.0625 3.5625 C-1 1 -1 1 0 0 Z " fill="#FDDB15" transform="translate(49,26)"/>
<path d="M0 0 C1.32 0 2.64 0 4 0 C4 0.66 4 1.32 4 2 C4.66 2 5.32 2 6 2 C6.66 5.63 7.32 9.26 8 13 C9.98 13.33 11.96 13.66 14 14 C14 15.32 14 16.64 14 18 C13.01 18.33 12.02 18.66 11 19 C10.67 19.66 10.34 20.32 10 21 C9.34 21 8.68 21 8 21 C8 21.66 8 22.32 8 23 C7.34 23 6.68 23 6 23 C5.67 23.99 5.34 24.98 5 26 C4.34 25.67 3.68 25.34 3 25 C3.33 24.01 3.66 23.02 4 22 C3.01 22.99 2.02 23.98 1 25 C0.34 24.67 -0.32 24.34 -1 24 C-0.21625 23.195625 0.5675 22.39125 1.375 21.5625 C4.57129057 17.78671199 5.28568622 13.79762984 6 9 C5.34 9 4.68 9 4 9 C3.896875 9.70125 3.79375 10.4025 3.6875 11.125 C2.64828362 15.47081395 1.23944988 18.79928293 -2 21.9375 C-7.92325059 24.03531792 -14.47861169 22.86755633 -20.1875 20.4375 C-21.115625 19.963125 -22.04375 19.48875 -23 19 C-20.92004232 16.7402929 -19.01430711 15.32686741 -16.25 14 C-15.54746094 13.65324219 -14.84492187 13.30648437 -14.12109375 12.94921875 C-12 12 -12 12 -8.3125 10.8125 C-3.66367071 8.26880095 -2.14398749 4.71282042 0 0 Z M6 19 C7 21 7 21 7 21 Z " fill="#FDE65C" transform="translate(48,35)"/>
<path d="M0 0 C0.99 0 1.98 0 3 0 C4.00486895 2.95670218 5.00306024 5.91561577 6 8.875 C6.28617188 9.71675781 6.57234375 10.55851562 6.8671875 11.42578125 C7.13789062 12.23144531 7.40859375 13.03710938 7.6875 13.8671875 C8.06455078 14.98262939 8.06455078 14.98262939 8.44921875 16.12060547 C9 18 9 18 9 20 C9.68964844 20.18175781 10.37929688 20.36351563 11.08984375 20.55078125 C17.13703115 22.16834166 23.08816832 23.94180675 29 26 C29 26.99 29 27.98 29 29 C23.69905784 30.80304155 18.39691512 32.50723624 13 34 C13 30 13 30 14.5 28.25 C14.995 27.8375 15.49 27.425 16 27 C15.34 27 14.68 27 14 27 C13.67 26.01 13.34 25.02 13 24 C12.030625 23.773125 11.06125 23.54625 10.0625 23.3125 C7 22 7 22 6.16015625 20.203125 C5.37335364 17.05591454 5 14.25140642 5 11 C4.34 11 3.68 11 3 11 C3 10.34 3 9.68 3 9 C1.07690578 9.03955898 1.07690578 9.03955898 -1 10 C-2.78379415 12.98352894 -2.78379415 12.98352894 -4 16 C-4.66 15.67 -5.32 15.34 -6 15 C-5.01 12.03 -4.02 9.06 -3 6 C-2.34 6 -1.68 6 -1 6 C-1.020625 5.195625 -1.04125 4.39125 -1.0625 3.5625 C-1 1 -1 1 0 0 Z " fill="#BEA118" transform="translate(49,26)"/>
<path d="M0 0 C0.66 0 1.32 0 2 0 C1.83560987 6.72505081 0.78944649 10.21055351 -4 15 C-2.68 14.01 -1.36 13.02 0 12 C0.66 12.33 1.32 12.66 2 13 C1.38125 13.763125 0.7625 14.52625 0.125 15.3125 C-2.05597052 17.99625809 -2.05597052 17.99625809 -4 21 C-4.66 21 -5.32 21 -6 21 C-6.33 22.32 -6.66 23.64 -7 25 C-6.34 25.33 -5.68 25.66 -5 26 C-5.99 26 -6.98 26 -8 26 C-9.485 21.05 -9.485 21.05 -11 16 C-13.475 15.505 -13.475 15.505 -16 15 C-18.06540766 14.51215018 -20.12787364 14.01170841 -22.1875 13.5 C-23.75564453 13.11328125 -23.75564453 13.11328125 -25.35546875 12.71875 C-28 12 -28 12 -30 11 C-29.67 9.68 -29.34 8.36 -29 7 C-25.535 6.505 -25.535 6.505 -22 6 C-23.32 6.99 -24.64 7.98 -26 9 C-20.69386855 12.29840604 -15.23356313 13.1905456 -9 13 C-6.25397873 12.29409067 -6.25397873 12.29409067 -4 11 C-2.72493136 8.17549031 -2.72493136 8.17549031 -2 5 C-1.34588315 3.32836805 -0.68346682 1.65984798 0 0 Z " fill="#FDE349" transform="translate(52,44)"/>
<path d="M0 0 C2.40513955 2.50134513 3 3.5893459 3 7.125 C2 10 2 10 -0.5 11.25 C-1.325 11.4975 -2.15 11.745 -3 12 C-3.33 12.66 -3.66 13.32 -4 14 C-4.66 13.67 -5.32 13.34 -6 13 C-6 13.66 -6 14.32 -6 15 C-11.27749285 14.46148032 -15.25645564 13.22656164 -20 11 C-17.63860783 8.24504247 -15.58947346 7.30761472 -12.125 6.3125 C-11.28195313 6.06113281 -10.43890625 5.80976562 -9.5703125 5.55078125 C-6.96661379 4.99284581 -4.65399031 4.90011864 -2 5 C-1.34 3.35 -0.68 1.7 0 0 Z " fill="#FBEC6F" transform="translate(45,43)"/>
<path d="M0 0 C2.56616632 3.84924948 2.55097676 6.4349304 3 11 C5.97 11.495 5.97 11.495 9 12 C9 13.32 9 14.64 9 16 C8.01 16.33 7.02 16.66 6 17 C5.67 17.66 5.34 18.32 5 19 C4.34 19 3.68 19 3 19 C3 19.66 3 20.32 3 21 C2.34 21 1.68 21 1 21 C0.67 21.99 0.34 22.98 0 24 C-0.66 23.67 -1.32 23.34 -2 23 C-1.67 22.01 -1.34 21.02 -1 20 C-1.99 20.99 -2.98 21.98 -4 23 C-4.66 22.67 -5.32 22.34 -6 22 C-4.73046875 20.60026042 -3.4609375 19.20052083 -2.19140625 17.80078125 C0.34166545 13.97210567 0.11615441 9.64081598 0.0625 5.1875 C0.05347656 4.21167969 0.04445313 3.23585937 0.03515625 2.23046875 C0.02355469 1.49441406 0.01195312 0.75835937 0 0 Z M1 17 C2 19 2 19 2 19 Z " fill="#FDDF23" transform="translate(53,37)"/>
<path d="M0 0 C0.99 0 1.98 0 3 0 C4.00486895 2.95670218 5.00306024 5.91561577 6 8.875 C6.28617188 9.71675781 6.57234375 10.55851562 6.8671875 11.42578125 C7.13789062 12.23144531 7.40859375 13.03710938 7.6875 13.8671875 C8.06455078 14.98262939 8.06455078 14.98262939 8.44921875 16.12060547 C9 18 9 18 9 20 C10.65 20.33 12.3 20.66 14 21 C14 21.33 14 21.66 14 22 C11.69 22 9.38 22 7 22 C5 14.375 5 14.375 5 11 C4.34 11 3.68 11 3 11 C3 10.34 3 9.68 3 9 C1.07690578 9.03955898 1.07690578 9.03955898 -1 10 C-2.78379415 12.98352894 -2.78379415 12.98352894 -4 16 C-4.66 15.67 -5.32 15.34 -6 15 C-5.01 12.03 -4.02 9.06 -3 6 C-2.34 6 -1.68 6 -1 6 C-1.020625 5.195625 -1.04125 4.39125 -1.0625 3.5625 C-1 1 -1 1 0 0 Z " fill="#AA8F20" transform="translate(49,26)"/>
<path d="M0 0 C-0.8125 2.4375 -0.8125 2.4375 -3 5 C-6.65747411 5.89891837 -10.24063989 6.22080579 -14 6 C-14.99 5.34 -15.98 4.68 -17 4 C-11.83084406 0.44620529 -6.17192006 -1.92442942 0 0 Z " fill="#FAF283" transform="translate(42,49)"/>
<path d="M0 0 C2.35145082 3.52717623 2.71009408 5.79636422 3 10 C2.0625 12.9375 2.0625 12.9375 1 15 C0.34 14.67 -0.32 14.34 -1 14 C-0.7215625 13.0409375 -0.7215625 13.0409375 -0.4375 12.0625 C-0.293125 11.381875 -0.14875 10.70125 0 10 C-0.33 9.67 -0.66 9.34 -1 9 C-1.433125 9.639375 -1.86625 10.27875 -2.3125 10.9375 C-6.44651583 14.1101168 -10.91601822 13.82469028 -16 14 C-13.39835909 12.26557273 -11.44629202 11.41569392 -8.5625 10.375 C-3.96371292 8.41265112 -2.42465222 6.15426408 -0.55859375 1.609375 C-0.28208984 0.81273437 -0.28208984 0.81273437 0 0 Z " fill="#FCEB66" transform="translate(47,36)"/>
<path d="M0 0 C2.91517292 1.07401108 4.77810176 1.77810176 7 4 C6.625 7.625 6.625 7.625 6 11 C4.35 10.67 2.7 10.34 1 10 C0.67 6.7 0.34 3.4 0 0 Z " fill="#BA9C15" transform="translate(46,71)"/>
<path d="M0 0 C0.66 0.33 1.32 0.66 2 1 C1.071875 2.1446875 1.071875 2.1446875 0.125 3.3125 C-2.05597052 5.99625809 -2.05597052 5.99625809 -4 9 C-4.66 9 -5.32 9 -6 9 C-6.33 10.32 -6.66 11.64 -7 13 C-6.34 13.33 -5.68 13.66 -5 14 C-5.99 14 -6.98 14 -8 14 C-8.99 10.7 -9.98 7.4 -11 4 C-9.68 4 -8.36 4 -7 4 C-3.97395487 2.99131829 -2.26969744 2.26969744 0 0 Z " fill="#FDDE2A" transform="translate(52,56)"/>
<path d="M0 0 C0.99 0.33 1.98 0.66 3 1 C2.37351562 1.06445312 1.74703125 1.12890625 1.1015625 1.1953125 C-1.2184059 1.80006882 -1.2184059 1.80006882 -1.9765625 4.1796875 C-2.19054688 5.06914063 -2.40453125 5.95859375 -2.625 6.875 C-3.45040028 10.20573288 -4.06047962 12.09071943 -6 15 C-7.5625 13.3125 -7.5625 13.3125 -9 11 C-8.74454157 7.59388766 -7.6483487 4.96702767 -6 2 C-5.34 2.33 -4.68 2.66 -4 3 C-4.66 5.31 -5.32 7.62 -6 10 C-4.1388555 8.1388555 -3.65363356 5.26719787 -2.81640625 2.8125 C-2 1 -2 1 0 0 Z " fill="#A48020" transform="translate(59,60)"/>
<path d="M0 0 C2.05486029 3.08229043 2.54612078 4.91213428 3.1875 8.5 C3.45626953 9.93859375 3.45626953 9.93859375 3.73046875 11.40625 C4 14 4 14 3 17 C2.34 17 1.68 17 1 17 C1 17.66 1 18.32 1 19 C-0.62626404 20.38232443 -2.2925002 21.71937515 -4 23 C-4.66 22.67 -5.32 22.34 -6 22 C-4.73046875 20.60026042 -3.4609375 19.20052083 -2.19140625 17.80078125 C0.34166545 13.97210567 0.11615441 9.64081598 0.0625 5.1875 C0.05347656 4.21167969 0.04445313 3.23585937 0.03515625 2.23046875 C0.02355469 1.49441406 0.01195312 0.75835937 0 0 Z " fill="#FEE531" transform="translate(53,37)"/>
<path d="M0 0 C-1.98 0.99 -1.98 0.99 -4 2 C-0.92188011 3.61234852 1.998027 4.99936715 5.3125 6.0625 C8 7 8 7 9 9 C6.91526053 8.54810561 4.83224964 8.08823175 2.75 7.625 C1.00976562 7.24214844 1.00976562 7.24214844 -0.765625 6.8515625 C-3.46052401 6.14203595 -5.59525832 5.36903611 -8 4 C-7.67 2.68 -7.34 1.36 -7 0 C-3.98968256 -0.93423645 -3.13349732 -1.04449911 0 0 Z " fill="#80602B" transform="translate(30,51)"/>
<path d="M0 0 C1.49080078 0.16628906 1.49080078 0.16628906 3.01171875 0.3359375 C3.77097656 0.43132813 4.53023437 0.52671875 5.3125 0.625 C2.74103943 3.19646057 0.7074583 3.42617997 -2.8125 4.25 C-3.90820312 4.51039062 -5.00390625 4.77078125 -6.1328125 5.0390625 C-6.97585937 5.23242188 -7.81890625 5.42578125 -8.6875 5.625 C-8.6875 4.305 -8.6875 2.985 -8.6875 1.625 C-5.1388865 -0.74074234 -4.1110475 -0.48365265 0 0 Z " fill="#B5931A" transform="translate(70.6875,54.375)"/>
<path d="M0 0 C1.32 0.33 2.64 0.66 4 1 C3.67 1.99 3.34 2.98 3 4 C1.35 4.33 -0.3 4.66 -2 5 C-2.99 8.3 -3.98 11.6 -5 15 C-5.66 14.67 -6.32 14.34 -7 14 C-5.18454172 8.735171 -3.26660981 4.5056687 0 0 Z " fill="#F9E104" transform="translate(59,56)"/>
<path d="M0 0 C2.97 0.495 2.97 0.495 6 1 C5.95875 1.7425 5.9175 2.485 5.875 3.25 C6.00398134 6.08758952 6.57051222 7.58773938 8 10 C3.15544041 7.70984456 3.15544041 7.70984456 1 6 C0.0625 2.75 0.0625 2.75 0 0 Z " fill="#FBE004" transform="translate(45,65)"/>
<path d="M0 0 C-1.1875 2.5 -1.1875 2.5 -3 5 C-5.6875 5.3125 -5.6875 5.3125 -8 5 C-8.33 3.68 -8.66 2.36 -9 1 C-5.57367167 -0.61798838 -3.61944899 -1.34053666 0 0 Z " fill="#FCF5A3" transform="translate(42,49)"/>
<path d="M0 0 C1.90389849 2.85584773 2.69462177 4.9311762 3.625 8.1875 C4.01558594 9.53908203 4.01558594 9.53908203 4.4140625 10.91796875 C4.60742188 11.60503906 4.80078125 12.29210938 5 13 C6.65 13.33 8.3 13.66 10 14 C10 14.33 10 14.66 10 15 C7.69 15 5.38 15 3 15 C2.49363393 13.25183142 1.99515381 11.50137737 1.5 9.75 C1.2215625 8.77546875 0.943125 7.8009375 0.65625 6.796875 C0 4 0 4 0 0 Z " fill="#82572F" transform="translate(53,33)"/>
<path d="M0 0 C0.99 1.32 1.98 2.64 3 4 C2.67 4.66 2.34 5.32 2 6 C1.34 6 0.68 6 0 6 C0 6.66 0 7.32 0 8 C-0.66 8 -1.32 8 -2 8 C-2.33 8.66 -2.66 9.32 -3 10 C-3.99 10 -4.98 10 -6 10 C-4.63016497 6.83884224 -4.0109362 6.0072908 -1 4 C-0.27617533 1.94074861 -0.27617533 1.94074861 0 0 Z " fill="#FDED85" transform="translate(45,43)"/>
<path d="M0 0 C-0.375 1.9375 -0.375 1.9375 -1 4 C-3.56893838 5.28446919 -5.76576337 5.32977144 -8.625 5.5625 C-9.62789062 5.64628906 -10.63078125 5.73007812 -11.6640625 5.81640625 C-12.43492188 5.87699219 -13.20578125 5.93757813 -14 6 C-11.47732009 4.31821339 -9.18908177 3.09893258 -6.4375 1.875 C-5.65246094 1.52179687 -4.86742187 1.16859375 -4.05859375 0.8046875 C-2 0 -2 0 0 0 Z " fill="#A07C39" transform="translate(45,44)"/>
<path d="M0 0 C1.98 0.99 1.98 0.99 4 2 C5.04449911 5.13349732 4.93423645 5.98968256 4 9 C4.66 9.33 5.32 9.66 6 10 C5.01 10 4.02 10 3 10 C2.01 6.7 1.02 3.4 0 0 Z " fill="#896329" transform="translate(41,60)"/>
<path d="M0 0 C1.32 0.33 2.64 0.66 4 1 C4 1.66 4 2.32 4 3 C3.01 3.495 3.01 3.495 2 4 C0.95191959 5.97522846 -0.0520411 7.97481509 -1 10 C-1.66 9.67 -2.32 9.34 -3 9 C-2.01 6.03 -1.02 3.06 0 0 Z " fill="#91743E" transform="translate(46,32)"/>
<path d="M0 0 C0.33 0.99 0.66 1.98 1 3 C1.66 3 2.32 3 3 3 C3 4.32 3 5.64 3 7 C3.66 7 4.32 7 5 7 C4.67 7.99 4.34 8.98 4 10 C4 9.34 4 8.68 4 8 C3.34 8 2.68 8 2 8 C2 7.34 2 6.68 2 6 C1.01 6.33 0.02 6.66 -1 7 C-0.67 4.69 -0.34 2.38 0 0 Z " fill="#DCC828" transform="translate(48,27)"/>
<path d="M0 0 C0 1.65 0 3.3 0 5 C-2.31 4.01 -4.62 3.02 -7 2 C-7 1.67 -7 1.34 -7 1 C-2.25 0 -2.25 0 0 0 Z " fill="#F7E03A" transform="translate(45,57)"/>
<path d="M0 0 C0.66 0 1.32 0 2 0 C1.375 1.9375 1.375 1.9375 0 4 C-3.125 4.75 -3.125 4.75 -6 5 C-6 4.34 -6 3.68 -6 3 C-5.195625 2.690625 -4.39125 2.38125 -3.5625 2.0625 C-1.10919595 1.23664655 -1.10919595 1.23664655 0 0 Z " fill="#FBE160" transform="translate(45,53)"/>
<path d="M0 0 C1.3921875 0.3403125 1.3921875 0.3403125 2.8125 0.6875 C2.4825 1.3475 2.1525 2.0075 1.8125 2.6875 C-0.8275 2.6875 -3.4675 2.6875 -6.1875 2.6875 C-4.14987265 -0.14253799 -3.59070275 -0.35202968 0 0 Z " fill="#F8E800" transform="translate(74.1875,52.3125)"/>
</svg>
