<?xml version="1.0" encoding="UTF-8"?>
<svg version="1.1" xmlns="http://www.w3.org/2000/svg" width="110" height="101">
<path d="M0 0 C1.24201172 -0.01224609 2.48402344 -0.02449219 3.76367188 -0.03710938 C14.3314401 -0.05391028 23.14219614 0.32961659 31.1640625 7.9453125 C38.17593186 15.30344701 38.68894256 22.23892965 38.49609375 32.07421875 C38.01424218 40.24519105 35.47268339 47.23707375 29.453125 52.953125 C20.58495049 60.0339155 11.65460711 59.51700648 0.73632812 59.31445312 C-6.61956921 59.40801693 -10.71968276 60.80547064 -16.36010742 65.5871582 C-19.16855167 67.51827664 -21.31237641 67.92928429 -24.6875 68.1875 C-26.609375 67.16796875 -26.609375 67.16796875 -27.6875 65.1875 C-27.515625 62.11328125 -27.515625 62.11328125 -26.9375 58.5 C-26.34777816 53.35780236 -26.34777816 53.35780236 -28.09765625 48.6640625 C-29.94220071 46.61935573 -29.94220071 46.61935573 -31.92578125 44.93359375 C-35.73083306 41.16228962 -35.96759628 36.90508659 -36.06835938 31.80395508 C-36.02890837 15.87067881 -36.02890837 15.87067881 -29.8515625 9.20703125 C-20.48861445 0.50774044 -12.27079427 0.00627021 0 0 Z " fill="#DDEBF4" transform="translate(51.6875,17.8125)"/>
<path d="M0 0 C1.56047445 0.00015913 3.12095416 0.00585397 4.68139648 0.01586914 C5.91115456 0.01799156 5.91115456 0.01799156 7.16575623 0.02015686 C9.79470406 0.0257725 12.42356797 0.0383276 15.05249023 0.05102539 C16.8304838 0.05603838 18.60847869 0.06060163 20.38647461 0.06469727 C24.75434569 0.07574701 29.12215371 0.09302208 33.48999023 0.11352539 C33.87217791 1.76967196 34.20394125 3.43809563 34.48999023 5.11352539 C33.48999023 6.11352539 33.48999023 6.11352539 29.97998047 6.22705078 C28.41950602 6.22689165 26.85902631 6.22119681 25.29858398 6.21118164 C24.47874527 6.20976669 23.65890656 6.20835175 22.81422424 6.20689392 C20.18527641 6.20127828 17.5564125 6.18872318 14.92749023 6.17602539 C13.14949667 6.1710124 11.37150177 6.16644915 9.59350586 6.16235352 C5.22563478 6.15130378 0.85782676 6.1340287 -3.51000977 6.11352539 C-3.89219744 4.45737882 -4.22396078 2.78895515 -4.51000977 1.11352539 C-3.51000977 0.11352539 -3.51000977 0.11352539 0 0 Z " fill="#1C3C91" transform="translate(38.510009765625,41.886474609375)"/>
<path d="M0 0 C3.95827235 -0.05785647 7.9164367 -0.09354717 11.875 -0.125 C13.00292969 -0.14175781 14.13085938 -0.15851562 15.29296875 -0.17578125 C16.36933594 -0.18222656 17.44570313 -0.18867187 18.5546875 -0.1953125 C19.54968262 -0.20578613 20.54467773 -0.21625977 21.56982422 -0.22705078 C24 0 24 0 26 2 C25.46428571 5.53571429 25.46428571 5.53571429 24 7 C20.21575935 7.28006266 16.41837268 7.23180637 12.625 7.25 C11.02398437 7.2809375 11.02398437 7.2809375 9.390625 7.3125 C7.85535156 7.32023437 7.85535156 7.32023437 6.2890625 7.328125 C5.34756348 7.3374707 4.40606445 7.34681641 3.43603516 7.35644531 C0.60544452 6.94226789 -0.25553368 6.20698662 -2 4 C-1.34 2.68 -0.68 1.36 0 0 Z " fill="#16318F" transform="translate(35,55)"/>
<path d="M0 0 C1 3 1 3 0.25 5.05078125 C-4.06361487 12.85572815 -8.66130152 17.6538475 -17.24462891 20.37988281 C-22.77652611 21.62487828 -28.41417714 21.58240096 -34.0625 21.6875 C-35.93325195 21.73874023 -35.93325195 21.73874023 -37.84179688 21.79101562 C-40.89444127 21.87288731 -43.94682034 21.94223628 -47 22 C-46.67 21.34 -46.34 20.68 -46 20 C-38.08 20 -30.16 20 -22 20 C-22 19.01 -22 18.02 -22 17 C-18.69019144 15.2698728 -15.66364742 13.75799602 -12 13 C-11.01 12.67 -10.02 12.34 -9 12 C-9.04125 11.21625 -9.0825 10.4325 -9.125 9.625 C-9 7 -9 7 -7 5 C-6.319375 4.835 -5.63875 4.67 -4.9375 4.5 C-3.9784375 4.2525 -3.9784375 4.2525 -3 4 C-2.67 3.34 -2.34 2.68 -2 2 C-1.34 2 -0.68 2 0 2 C0 1.34 0 0.68 0 0 Z " fill="#7EAACD" transform="translate(88,56)"/>
<path d="M0 0 C5.94 0 11.88 0 18 0 C17.34 0.66 16.68 1.32 16 2 C17.918125 2.185625 17.918125 2.185625 19.875 2.375 C23.75 2.75 23.75 2.75 26 5 C26.25 7.5 26.25 7.5 26 10 C24 12 24 12 21.47802734 12.22705078 C20.4411377 12.21657715 19.40424805 12.20610352 18.3359375 12.1953125 C17.21445312 12.18886719 16.09296875 12.18242188 14.9375 12.17578125 C13.761875 12.15902344 12.58625 12.14226563 11.375 12.125 C9.59996094 12.11146484 9.59996094 12.11146484 7.7890625 12.09765625 C4.85917477 12.07402812 1.9296866 12.04108514 -1 12 C-1 11.67 -1 11.34 -1 11 C6.92 10.67 14.84 10.34 23 10 C23.33 8.68 23.66 7.36 24 6 C21.45166146 3.45166146 14.54813119 4.71697587 11.125 4.6875 C10.00996094 4.65849609 8.89492188 4.62949219 7.74609375 4.59960938 C6.67746094 4.59123047 5.60882813 4.58285156 4.5078125 4.57421875 C3.52441895 4.55963623 2.54102539 4.54505371 1.52783203 4.5300293 C-1.16057943 4.76653912 -1.16057943 4.76653912 -2.84423828 7.02661133 C-3.22563965 7.67782959 -3.60704102 8.32904785 -4 9 C-3.6875 6.625 -3.6875 6.625 -3 4 C-2.01 3.34 -1.02 2.68 0 2 C0 1.34 0 0.68 0 0 Z " fill="#F9FDFD" transform="translate(36,51)"/>
<path d="M0 0 C0.66 0.33 1.32 0.66 2 1 C1.38511719 1.67095703 1.38511719 1.67095703 0.7578125 2.35546875 C-3.06093734 6.64014261 -6 10.01766755 -6 16 C-6.66 16 -7.32 16 -8 16 C-7.67 22.27 -7.34 28.54 -7 35 C-7.33 34.34 -7.66 33.68 -8 33 C-8.66 33 -9.32 33 -10 33 C-10.83030495 11.61964747 -10.83030495 11.61964747 -4.3984375 4.13671875 C-2.99699279 2.69210158 -1.50619877 1.33503982 0 0 Z " fill="#D1D2DE" transform="translate(26,23)"/>
<path d="M0 0 C7.92 0 15.84 0 24 0 C24 0.99 24 1.98 24 3 C16.08 3 8.16 3 0 3 C0 2.01 0 1.02 0 0 Z " fill="#2850A0" transform="translate(35,57)"/>
<path d="M0 0 C4.51504731 3.8021451 6.36773214 7.20879293 7 13 C7.14431807 17.33949515 7.11907886 21.66023696 7 26 C6.34 26.33 5.68 26.66 5 27 C5 22.38 5 17.76 5 13 C4.34 13 3.68 13 3 13 C-0.56416465 4.94188862 -0.56416465 4.94188862 -1 2 C-0.67 1.34 -0.34 0.68 0 0 Z " fill="#A3B0C5" transform="translate(83,27)"/>
<path d="M0 0 C0.53625 0.391875 1.0725 0.78375 1.625 1.1875 C1.295 2.1775 0.965 3.1675 0.625 4.1875 C-5.98942477 7.00991057 -13.22906963 6.63420705 -20.3125 6.8125 C-22.19678711 6.87050781 -22.19678711 6.87050781 -24.11914062 6.9296875 C-27.20428426 7.02353217 -30.28942865 7.10922316 -33.375 7.1875 C-33.045 6.5275 -32.715 5.8675 -32.375 5.1875 C-24.455 5.1875 -16.535 5.1875 -8.375 5.1875 C-8.375 4.1975 -8.375 3.2075 -8.375 2.1875 C-2.95961538 -1.0125 -2.95961538 -1.0125 0 0 Z " fill="#6B86AC" transform="translate(74.375,70.8125)"/>
<path d="M0 0 C3.875 0.875 3.875 0.875 5 2 C5.07179964 3.51928038 5.08392007 5.04167482 5.0625 6.5625 C5.05347656 7.38878906 5.04445313 8.21507813 5.03515625 9.06640625 C5.01775391 10.02353516 5.01775391 10.02353516 5 11 C4.34 11 3.68 11 3 11 C3.33 12.98 3.66 14.96 4 17 C5.11375 16.7525 5.11375 16.7525 6.25 16.5 C9 16 9 16 13 16 C11.1280856 18.39189062 9.97353044 19.00772029 7 19.875 C4 20 4 20 2.28515625 18.9453125 C0.29855392 15.93823664 1.02430264 13.51034928 1.4375 10 C2.25924308 4.66350728 2.25924308 4.66350728 0 0 Z " fill="#788196" transform="translate(23,66)"/>
<path d="M0 0 C0.88365234 -0.00128906 1.76730469 -0.00257812 2.67773438 -0.00390625 C3.59748047 -0.00003906 4.51722656 0.00382812 5.46484375 0.0078125 C6.38845703 0.00394531 7.31207031 0.00007813 8.26367188 -0.00390625 C9.5872168 -0.00197266 9.5872168 -0.00197266 10.9375 0 C11.74582275 0.00112793 12.55414551 0.00225586 13.38696289 0.00341797 C15.40234375 0.1328125 15.40234375 0.1328125 17.40234375 1.1328125 C17.40234375 1.7928125 17.40234375 2.4528125 17.40234375 3.1328125 C8.82234375 3.1328125 0.24234375 3.1328125 -8.59765625 3.1328125 C-6.8164706 -0.4295588 -3.56919288 0.00497349 0 0 Z " fill="#C8E3F0" transform="translate(48.59765625,72.8671875)"/>
<path d="M0 0 C5.94 0 11.88 0 18 0 C15.41451372 2.58548628 13.70461615 2.97641847 10.08203125 3.09765625 C8.46361328 3.08025391 8.46361328 3.08025391 6.8125 3.0625 C5.18248047 3.04896484 5.18248047 3.04896484 3.51953125 3.03515625 C2.68808594 3.02355469 1.85664062 3.01195312 1 3 C0.67 2.01 0.34 1.02 0 0 Z " fill="#E9F3FA" transform="translate(36,51)"/>
<path d="M0 0 C0.33 0 0.66 0 1 0 C1.19430855 2.6246601 1.38073238 5.24946765 1.5625 7.875 C1.61857422 8.62136719 1.67464844 9.36773437 1.73242188 10.13671875 C2.11328125 15.7734375 2.11328125 15.7734375 1 18 C0.34 18 -0.32 18 -1 18 C-1.33 18.99 -1.66 19.98 -2 21 C-2.66 19.68 -3.32 18.36 -4 17 C-3.34 16.67 -2.68 16.34 -2 16 C-1.52402634 13.29400158 -1.15906371 10.66404596 -0.875 7.9375 C-0.74544922 6.79958008 -0.74544922 6.79958008 -0.61328125 5.63867188 C-0.40060483 3.76003014 -0.19924541 1.88011364 0 0 Z " fill="#B7DCF0" transform="translate(87,40)"/>
<path d="M0 0 C0.66 0.33 1.32 0.66 2 1 C1.38511719 1.68835938 1.38511719 1.68835938 0.7578125 2.390625 C0.21898437 3.00421875 -0.31984375 3.6178125 -0.875 4.25 C-1.40867187 4.85328125 -1.94234375 5.4565625 -2.4921875 6.078125 C-4.06498718 7.9391915 -4.06498718 7.9391915 -5.0078125 10.109375 C-6 12 -6 12 -9 14 C-7.64002446 7.95566426 -4.14348206 4.36505864 0 0 Z " fill="#A9A4B9" transform="translate(26,23)"/>
<path d="M0 0 C3.875 0.875 3.875 0.875 5 2 C5.07179964 3.51928038 5.08392007 5.04167482 5.0625 6.5625 C5.05347656 7.38878906 5.04445313 8.21507813 5.03515625 9.06640625 C5.01775391 10.02353516 5.01775391 10.02353516 5 11 C4.34 11 3.68 11 3 11 C2.8046875 9.01432292 2.609375 7.02864583 2.4140625 5.04296875 C2.07334609 2.70011858 2.07334609 2.70011858 0 0 Z " fill="#A2A9B9" transform="translate(23,66)"/>
<path d="M0 0 C3.91402949 1.26941497 5.79072873 2.51167694 8 6 C4.21032475 5.45861782 2.48587161 3.84099612 0 1 C0 0.67 0 0.34 0 0 Z " fill="#8B90A1" transform="translate(75,21)"/>
<path d="M0 0 C3.63 0 7.26 0 11 0 C8.64046906 2.35953094 7.22104383 2.49141413 4 3 C4 2.34 4 1.68 4 1 C2.68 0.67 1.36 0.34 0 0 Z " fill="#FAFCFC" transform="translate(57,19)"/>
</svg>
