<?xml version="1.0" encoding="UTF-8"?>
<svg version="1.1" xmlns="http://www.w3.org/2000/svg">
<path d="M0 0 C3.20672947 5.81299566 2.35558035 11.17202016 0.75 17.375 C-3.52569491 31.78567545 -10.24799791 48.757285 -22.671875 57.984375 C-25.33947908 60.29391142 -25.69457483 61.26065346 -26.125 64.6875 C-26.27066406 65.56792969 -26.41632813 66.44835937 -26.56640625 67.35546875 C-26.70949219 68.22816406 -26.85257813 69.10085937 -27 70 C-28.60207491 77.92959764 -32.76530526 83.82423088 -39 89 C-40.32 89 -41.64 89 -43 89 C-44.43238651 84.32087073 -45.35127867 79.86833214 -46 75 C-46.99 75.60328125 -47.98 76.2065625 -49 76.828125 C-69.69303043 89.38173961 -69.69303043 89.38173961 -80 89 C-80.66 88.67 -81.32 88.34 -82 88 C-82.75887181 75.92129036 -79.72391076 66.08586614 -73 56 C-73.85464844 55.93941406 -74.70929688 55.87882812 -75.58984375 55.81640625 C-76.69457031 55.73261719 -77.79929687 55.64882812 -78.9375 55.5625 C-80.03964844 55.48128906 -81.14179687 55.40007812 -82.27734375 55.31640625 C-85 55 -85 55 -86 54 C-86.5 51.4375 -86.5 51.4375 -86 48 C-83.96956629 45.02012405 -81.5635314 42.52567334 -79 40 C-78.236875 39.236875 -77.47375 38.47375 -76.6875 37.6875 C-71.71569133 34.56566665 -66.15791866 33.07314979 -60.3125 32.875 C-55.77082186 31.67531143 -54.58802523 29.25714917 -51.921875 25.53515625 C-41.15463973 11.33203493 -18.24436281 -2.04822368 0 0 Z " fill="#A1B8DE" transform="translate(104,16)"/>
<path d="M0 0 C0 3.54908062 -1.30996413 5.53235114 -2.9140625 8.62109375 C-5.83399984 15.01764712 -7.22681132 22.04130189 -8 29 C-0.31562677 24.28647517 7.04121459 19.20591147 14.33569336 13.91308594 C15.04089111 13.40680664 15.74608887 12.90052734 16.47265625 12.37890625 C17.42023804 11.69163452 17.42023804 11.69163452 18.38696289 10.99047852 C20 10 20 10 22 10 C20.69652595 13.57038543 19.14740344 16.47490442 16.9375 19.5625 C16.02097656 20.84447266 16.02097656 20.84447266 15.0859375 22.15234375 C11.43558091 27.13569572 7.73069673 32.07649547 4 37 C13.61657263 36.37957596 21.14033867 33.50176293 29 28 C29.66 28 30.32 28 31 28 C30.3018806 39.53100664 28.07977712 46.42908025 20.25390625 55.12890625 C18 57 18 57 14 57 C12.56761349 52.32087073 11.64872133 47.86833214 11 43 C10.01 43.60328125 9.02 44.2065625 8 44.828125 C-12.69303043 57.38173961 -12.69303043 57.38173961 -23 57 C-23.66 56.67 -24.32 56.34 -25 56 C-25.75887181 43.92129036 -22.72391076 34.08586614 -16 24 C-16.85464844 23.93941406 -17.70929687 23.87882812 -18.58984375 23.81640625 C-19.69457031 23.73261719 -20.79929687 23.64882812 -21.9375 23.5625 C-23.03964844 23.48128906 -24.14179688 23.40007812 -25.27734375 23.31640625 C-28 23 -28 23 -29 22 C-29.5 19.4375 -29.5 19.4375 -29 16 C-26.96956629 13.02012405 -24.5635314 10.52567334 -22 8 C-21.236875 7.236875 -20.47375 6.47375 -19.6875 5.6875 C-13.79736329 1.98904207 -6.83765015 0.74322284 0 0 Z " fill="#80567D" transform="translate(47,48)"/>
<path d="M0 0 C-0.14203337 2.37528151 -0.28851612 4.75015251 -0.4375 7.125 C-0.49647461 8.12273437 -0.49647461 8.12273437 -0.55664062 9.140625 C-0.812152 13.15018817 -1.26782413 17.04994196 -2 21 C-1.39414062 20.7834375 -0.78828125 20.566875 -0.1640625 20.34375 C6.06193861 18.27480194 11.45897355 17.62423891 18 18 C18 21 18 21 16.125 23.3125 C9.03733646 29.93966562 -0.23179629 34.63376484 -9.9375 35.25 C-13 35 -13 35 -15 34 C-15.53986493 25.40714989 -14.49666984 18.86112635 -11 11 C-10.525625 9.88625 -10.05125 8.7725 -9.5625 7.625 C-7.14734132 3.56753342 -4.96309341 0 0 0 Z " fill="#FDD200" transform="translate(37,70)"/>
<path d="M0 0 C0.99386719 0.00902344 1.98773438 0.01804687 3.01171875 0.02734375 C4.15060547 0.04474609 4.15060547 0.04474609 5.3125 0.0625 C8.51922947 5.87549566 7.66808035 11.23452016 6.0625 17.4375 C4.49723845 22.79234215 2.5034326 27.93549529 0.3125 33.0625 C-0.0175 33.0625 -0.3475 33.0625 -0.6875 33.0625 C-0.90792969 32.10150391 -0.90792969 32.10150391 -1.1328125 31.12109375 C-3.04665199 23.74071274 -5.50593662 18.7191038 -12.0546875 14.55859375 C-16.91546319 11.96568757 -21.19141737 10.42094017 -26.6875 10.0625 C-23.3221928 7.2454258 -19.64391563 5.59848486 -15.625 3.9375 C-15.00044922 3.67324219 -14.37589844 3.40898437 -13.73242188 3.13671875 C-8.89757611 1.10370997 -5.25025897 -0.06176775 0 0 Z " fill="#D40259" transform="translate(98.6875,15.9375)"/>
<path d="M0 0 C1.62490954 -0.02698189 3.24994633 -0.04638757 4.875 -0.0625 C6.23238281 -0.07990234 6.23238281 -0.07990234 7.6171875 -0.09765625 C10 0 10 0 12 1 C14.48870744 4.585131 14.20373352 7.99839007 14.125 12.25 C14.10695312 13.51328125 14.08890625 14.7765625 14.0703125 16.078125 C14.04710937 17.04234375 14.02390625 18.0065625 14 19 C13.071875 17.7934375 13.071875 17.7934375 12.125 16.5625 C10.25835959 13.96125481 10.25835959 13.96125481 8 13 C3.60999398 12.64016344 1.07257836 12.46371082 -2.875 14.4375 C-5.44604568 17.53787861 -5.94153512 19.95967392 -6.54296875 23.87890625 C-7 26 -7 26 -9 29 C-9.33 29.66 -9.66 30.32 -10 31 C-14.82425944 32.47180796 -18.92477148 33.25376143 -24 33 C-21.54780745 21.81333112 -15.71371606 15.11091041 -7.11328125 7.82421875 C-3.00253151 4.36356371 -3.00253151 4.36356371 0 0 Z " fill="#F8F9FC" transform="translate(71,27)"/>
<path d="M0 0 C0 0.33 0 0.66 0 1 C-2.64 1 -5.28 1 -8 1 C-8.23203125 1.74507812 -8.4640625 2.49015625 -8.703125 3.2578125 C-10.24601745 6.52019352 -11.85261711 7.7590325 -14.75 9.875 C-21.55404746 15.12019509 -25.89975542 19.88404519 -29.140625 27.88671875 C-29.99408429 29.98545273 -30.96361061 31.98631361 -32 34 C-31.175 33.855625 -30.35 33.71125 -29.5 33.5625 C-25.67313722 32.94746848 -21.84783293 32.46439363 -18 32 C-17.67 30.02 -17.34 28.04 -17 26 C-16.01 26 -15.02 26 -14 26 C-11.8125 29 -11.8125 29 -10 32 C-13.46459244 34.39066423 -16.93351335 36.77486924 -20.40649414 39.15332031 C-21.58607488 39.96245287 -22.76447874 40.77330404 -23.94165039 41.5859375 C-25.6389825 42.75720431 -27.34052379 43.92211893 -29.04296875 45.0859375 C-30.06414795 45.7876709 -31.08532715 46.4894043 -32.13745117 47.21240234 C-34.7203943 48.8253925 -37.13867521 49.98417224 -40 51 C-40.1802845 45.95847268 -39.64465623 41.78124838 -38.25 36.9375 C-37.92515625 35.77089844 -37.6003125 34.60429688 -37.265625 33.40234375 C-35.93390483 29.82231822 -34.16040569 27.13428936 -32 24 C-31.66742188 23.14921875 -31.33484375 22.2984375 -30.9921875 21.421875 C-26.41059363 10.2384569 -12.281001 -1.84215015 0 0 Z " fill="#CFDDF1" transform="translate(79,26)"/>
<path d="M0 0 C-0.81867212 6.38564257 -2.41280424 12.61920635 -6 18 C-8.89840767 18.41237508 -11.59027082 18.64966451 -14.5 18.75 C-15.28503906 18.79253906 -16.07007813 18.83507812 -16.87890625 18.87890625 C-22.70275706 19.14862147 -22.70275706 19.14862147 -25 18 C-25.26414968 15.02184184 -25.29168974 13.45140458 -23.64453125 10.90234375 C-16.03360016 2.73966073 -11.51474189 -0.28084736 0 0 Z " fill="#D20354" transform="translate(43,51)"/>
<path d="M0 0 C2.97717008 1.98478006 4.62826444 3.36831119 5.44140625 6.9375 C5.66684799 10.77728188 5.23190202 12.63668683 3.125 15.9375 C-0.33531163 19.29603776 -3.05130199 19.46302965 -7.734375 19.41015625 C-10.35303356 18.93608875 -11.28889498 18.32698484 -13.0625 16.375 C-15.19068884 12.66783234 -15.86817902 11.16725929 -15 7 C-11.16853014 0.9569832 -7.16084588 -1.17750047 0 0 Z " fill="#436193" transform="translate(79,39)"/>
<path d="M0 0 C0.99 0.33 1.98 0.66 3 1 C4.09702364 9.22767733 -0.347768 15.30858938 -5.00390625 21.7890625 C-13.66565232 32.93263715 -25.22230311 39.76043088 -39 43 C-40.99908449 43.0605078 -43.00147329 43.07675287 -45 43 C-42.72930984 39.59396476 -41.95474769 39.66383927 -38.234375 38.6953125 C-30.18310894 36.18984859 -23.3623819 31.84923524 -16.9375 26.5 C-16.11548096 25.82432983 -16.11548096 25.82432983 -15.27685547 25.13500977 C-11.78243005 22.10647133 -9.86686521 19.19895561 -8 15 C-7 14 -6 13 -5 12 C-3.95377125 10.02379014 -2.94560065 8.0262871 -2 6 C-1.34 6 -0.68 6 0 6 C0 4.02 0 2.04 0 0 Z " fill="#7594CC" transform="translate(95,43)"/>
<path d="M0 0 C0 3 0 3 -1.8125 6.5 C-5.72902257 14.08216469 -7.29724668 21.52846966 -7 30 C-7.29714351 31.34186237 -7.62243192 32.67851173 -8 34 C-7.24074219 33.50628906 -6.48148438 33.01257813 -5.69921875 32.50390625 C-4.20841797 31.54291016 -4.20841797 31.54291016 -2.6875 30.5625 C-1.70136719 29.92441406 -0.71523438 29.28632812 0.30078125 28.62890625 C3 27 3 27 6 26 C4.55089321 29.76767766 2.13242988 31.86244919 -0.85546875 34.4375 C-2.26512303 35.97801285 -2.26512303 35.97801285 -1.67578125 38.1875 C-1.45277344 38.785625 -1.22976562 39.38375 -1 40 C-7.5 43 -7.5 43 -12 43 C-11.85845864 40.43719792 -11.71191438 37.87484515 -11.5625 35.3125 C-11.52318359 34.59126953 -11.48386719 33.87003906 -11.44335938 33.12695312 C-11.21814322 29.33292718 -10.87160695 25.71348508 -10 22 C-12.99332739 22.9977758 -13.94766315 23.7522025 -16 26 C-16 25.34 -16 24.68 -16 24 C-16.85464844 23.95101562 -17.70929687 23.90203125 -18.58984375 23.8515625 C-19.69457031 23.77679688 -20.79929687 23.70203125 -21.9375 23.625 C-23.03964844 23.55539063 -24.14179688 23.48578125 -25.27734375 23.4140625 C-26.17582031 23.27742188 -27.07429688 23.14078125 -28 23 C-28.33 22.34 -28.66 21.68 -29 21 C-22.73 20.67 -16.46 20.34 -10 20 C-8.14666221 16.29332442 -7.09672261 12.97561947 -6 9 C-5.34427209 6.99638693 -4.68124706 4.99508067 -4 3 C-7.3 3.33 -10.6 3.66 -14 4 C-11.5162463 1.5162463 -10.43222478 1.67196884 -7 1.4375 C-3.36281225 1.22782477 -3.36281225 1.22782477 0 0 Z " fill="#840F1B" transform="translate(47,48)"/>
<path d="M0 0 C3.3 0 6.6 0 10 0 C10 3 10 3 8.125 5.3125 C1.22541529 11.76380661 -8.44879858 17.12958614 -18.0625 17.1875 C-19.5165625 17.0946875 -19.5165625 17.0946875 -21 17 C-21 16.67 -21 16.34 -21 16 C-19.02 16 -17.04 16 -15 16 C-14.814375 14.2984375 -14.814375 14.2984375 -14.625 12.5625 C-14.41875 11.386875 -14.2125 10.21125 -14 9 C-13.34 8.67 -12.68 8.34 -12 8 C-11.67 7.01 -11.34 6.02 -11 5 C-8.96875 4.3046875 -8.96875 4.3046875 -6.5 3.875 C-3.46069634 3.52112584 -3.46069634 3.52112584 -1 2 C-0.67 1.34 -0.34 0.68 0 0 Z " fill="#FD9100" transform="translate(45,88)"/>
<path d="M0 0 C-0.59582329 6.91155013 -1.91589436 11.42229039 -6.375 16.9375 C-7.674375 17.9584375 -7.674375 17.9584375 -9 19 C-11.6640625 18.62890625 -11.6640625 18.62890625 -14 18 C-14.03738281 17.25234375 -14.07476562 16.5046875 -14.11328125 15.734375 C-14.17902344 14.74953125 -14.24476562 13.7646875 -14.3125 12.75 C-14.37050781 11.77546875 -14.42851563 10.8009375 -14.48828125 9.796875 C-15.04636524 6.74658389 -15.96369776 5.29288724 -18 3 C-14.97265625 2.26757812 -14.97265625 2.26757812 -11.9453125 1.53515625 C-7.50532301 0.31371336 -4.78084748 -0.07711044 0 0 Z " fill="#A2034A" transform="translate(75,85)"/>
<path d="M0 0 C1.50471668 10.07117305 0.78337495 16.96289715 -4 26 C-4.33 26 -4.66 26 -5 26 C-5.22042969 25.03900391 -5.22042969 25.03900391 -5.4453125 24.05859375 C-7.09987519 17.67806751 -9.31142096 13.60311015 -14 9 C-14.556875 8.44183594 -15.11375 7.88367188 -15.6875 7.30859375 C-16.120625 6.87675781 -16.55375 6.44492187 -17 6 C-14.525 6.99 -14.525 6.99 -12 8 C-11.278125 7.236875 -10.55625 6.47375 -9.8125 5.6875 C-3.86046512 0 -3.86046512 0 0 0 Z " fill="#930456" transform="translate(103,23)"/>
<path d="M0 0 C-0.39853646 6.58272295 -1.13239159 12.97665028 -4 19 C-4.66 19.33 -5.32 19.66 -6 20 C-5.01 16.37 -4.02 12.74 -3 9 C-8.48821566 10.03831107 -13.74565027 11.06418694 -19 13 C-18.01 14.485 -18.01 14.485 -17 16 C-16.66686818 18.83794579 -16.55891705 21.64953096 -16.44140625 24.50390625 C-16.29574219 25.32761719 -16.15007813 26.15132812 -16 27 C-15.01 27.66 -14.02 28.32 -13 29 C-14.32 29 -15.64 29 -17 29 C-18.43023178 24.32790951 -19.40380045 19.86896303 -20 15 C-21.32 15.33 -22.64 15.66 -24 16 C-23.67 15.01 -23.34 14.02 -23 13 C-24.98 12.34 -26.96 11.68 -29 11 C-28.67 10.34 -28.34 9.68 -28 9 C-26.06640625 8.7265625 -26.06640625 8.7265625 -23.5625 8.625 C-15.26199539 7.94813482 -7.12656382 0 0 0 Z " fill="#5E0D29" transform="translate(78,76)"/>
<path d="M0 0 C0 0.66 0 1.32 0 2 C-0.77085938 2.23074219 -1.54171875 2.46148437 -2.3359375 2.69921875 C-3.33882812 3.02535156 -4.34171875 3.35148437 -5.375 3.6875 C-6.37273438 4.00074219 -7.37046875 4.31398438 -8.3984375 4.63671875 C-11.21565772 5.7938579 -11.21565772 5.7938579 -12.3515625 8.64453125 C-12.56554688 9.42183594 -12.77953125 10.19914062 -13 11 C-13.66 11 -14.32 11 -15 11 C-16.20628008 13.33214148 -17.1654738 15.49642139 -18 18 C-22.75 19.125 -22.75 19.125 -25 18 C-25.26414968 15.02184184 -25.29168974 13.45140458 -23.64453125 10.90234375 C-16.03360016 2.73966073 -11.51474189 -0.28084736 0 0 Z " fill="#FC1C4D" transform="translate(43,51)"/>
<path d="M0 0 C0 3 0 3 -1.35546875 4.5 C-1.96003906 4.995 -2.56460938 5.49 -3.1875 6 C-3.82429688 6.52207031 -4.46109375 7.04414062 -5.1171875 7.58203125 C-7.31269288 9.23549277 -9.64517789 10.58710673 -12 12 C-12.99 13.485 -12.99 13.485 -14 15 C-15.66072849 15.68132451 -17.327767 16.34742127 -19 17 C-20.0194119 17.98020375 -21.02246356 18.97803008 -22 20 C-22.99 20.33 -23.98 20.66 -25 21 C-23.49228041 16.6086637 -21.1202577 13.05479866 -18.4375 9.3125 C-15.5019847 5.29029545 -15.5019847 5.29029545 -13 1 C-11.84371094 1.14308594 -11.84371094 1.14308594 -10.6640625 1.2890625 C-9.66117188 1.39992187 -8.65828125 1.51078125 -7.625 1.625 C-6.62726563 1.74101563 -5.62953125 1.85703125 -4.6015625 1.9765625 C-3.74304688 1.98429687 -2.88453125 1.99203125 -2 2 C-1.34 1.34 -0.68 0.68 0 0 Z " fill="#BCD3EA" transform="translate(82,57)"/>
<path d="M0 0 C4.28477792 2.30718811 7.72291137 4.32966073 11 8 C10.67 8.66 10.34 9.32 10 10 C9.67 10 9.34 10 9 10 C8.773125 11.299375 8.54625 12.59875 8.3125 13.9375 C7.16650858 19.20738754 4.82029153 23.44662857 2 28 C1.01 28 0.02 28 -1 28 C-0.855625 27.18917969 -0.71125 26.37835938 -0.5625 25.54296875 C1.6274702 12.74561628 1.6274702 12.74561628 0 0 Z " fill="#B7CBEA" transform="translate(83,28)"/>
<path d="M0 0 C0.99 0.99 1.98 1.98 3 3 C0.44313991 4.79982103 -2.12142337 6.5883496 -4.6875 8.375 C-5.40873047 8.88289063 -6.12996094 9.39078125 -6.87304688 9.9140625 C-10.47321249 12.41280759 -13.79455914 14.62307065 -18 16 C-18.20666253 10.93676791 -17.80886571 6.76017293 -16 2 C-15.01 1.67 -14.02 1.34 -13 1 C-12.01 1.99 -11.02 2.98 -10 4 C-9.01 3.34 -8.02 2.68 -7 2 C-3.8125 1.875 -3.8125 1.875 -1 2 C-0.67 1.34 -0.34 0.68 0 0 Z " fill="#9EBFE5" transform="translate(57,61)"/>
<path d="M0 0 C-1.1241176 1.29243468 -2.24932592 2.58392075 -3.375 3.875 C-4.00148438 4.59429688 -4.62796875 5.31359375 -5.2734375 6.0546875 C-8.7601623 9.98316928 -8.7601623 9.98316928 -12.5625 10.25 C-17.18899434 10.14813223 -21.53580198 9.15738467 -26 8 C-18.84289202 2.26760906 -9.22093291 -2.58903084 0 0 Z " fill="#F84664" transform="translate(98,18)"/>
<path d="M0 0 C0.66 0.33 1.32 0.66 2 1 C-0.9214686 4.94926237 -4.16597505 7.98968412 -8.0625 10.9375 C-8.63033203 11.3691748 -9.19816406 11.80084961 -9.78320312 12.24560547 C-23.55479404 22.5052104 -23.55479404 22.5052104 -31 22 C-29.84826645 19.53199953 -28.95216435 17.95216435 -27 16 C-24.375 15.375 -24.375 15.375 -22 15 C-21.67 14.01 -21.34 13.02 -21 12 C-19.14453125 10.90234375 -19.14453125 10.90234375 -16.8125 9.9375 C-15.99910156 9.59589844 -15.18570313 9.25429687 -14.34765625 8.90234375 C-12.50816116 8.19531652 -10.63354671 7.57955283 -8.75 7 C-4.95770424 5.62098336 -1.83757425 3.67514851 0 0 Z " fill="#99B1DC" transform="translate(84,61)"/>
<path d="M0 0 C2.97717008 1.98478006 4.62826444 3.36831119 5.44140625 6.9375 C5.66684799 10.77728188 5.23190202 12.63668683 3.125 15.9375 C-0.33531163 19.29603776 -3.05130199 19.46302965 -7.734375 19.41015625 C-10.35303356 18.93608875 -11.28889498 18.32698484 -13.0625 16.375 C-15.10954733 12.80917562 -15.47935012 11.02654103 -15 7 C-14.34 7 -13.68 7 -13 7 C-12.57682292 9.01822917 -12.15364583 11.03645833 -11.73046875 13.0546875 C-11.07691162 15.37046549 -11.07691162 15.37046549 -8 17 C-5.93089407 17.02749478 -5.93089407 17.02749478 -3.8125 16.625 C-2.554375 16.41875 -1.29625 16.2125 0 16 C0.33569542 11.80380719 0.18687561 9.38067254 -1.6875 5.5625 C-3.72488266 2.80921708 -3.72488266 2.80921708 -6.5 2.4375 C-9.32902205 3.07402996 -10.84848278 4.08754025 -13 6 C-10.4240004 0.05538553 -6.19169857 -1.14438009 0 0 Z " fill="#1D3161" transform="translate(79,39)"/>
<path d="M0 0 C1.21236328 0.02707031 1.21236328 0.02707031 2.44921875 0.0546875 C3.37154297 0.08949219 3.37154297 0.08949219 4.3125 0.125 C4.3125 0.455 4.3125 0.785 4.3125 1.125 C1.6725 1.125 -0.9675 1.125 -3.6875 1.125 C-3.91953125 1.87007812 -4.1515625 2.61515625 -4.390625 3.3828125 C-5.93351745 6.64519352 -7.54011711 7.8840325 -10.4375 10 C-17.86705573 15.71093724 -22.66409561 22.26925059 -27.6875 30.125 C-28.0175 29.465 -28.3475 28.805 -28.6875 28.125 C-27.91015625 26.3984375 -27.91015625 26.3984375 -26.75 24.5 C-25.7290625 22.829375 -25.7290625 22.829375 -24.6875 21.125 C-25.3475 21.455 -26.0075 21.785 -26.6875 22.125 C-22.52777742 13.08560284 -10.42611007 -0.30220609 0 0 Z " fill="#ADB4C9" transform="translate(74.6875,25.875)"/>
<path d="M0 0 C-1.44910679 3.76767766 -3.86757012 5.86244919 -6.85546875 8.4375 C-8.26512303 9.97801285 -8.26512303 9.97801285 -7.67578125 12.1875 C-7.45277344 12.785625 -7.22976562 13.38375 -7 14 C-13.5 17 -13.5 17 -18 17 C-18.125 11.25 -18.125 11.25 -17 9 C-15.3984375 8.10546875 -15.3984375 8.10546875 -13.375 7.1875 C-10.39515083 5.76724815 -7.77658126 4.21640375 -5.125 2.25 C-2 0 -2 0 0 0 Z " fill="#0D0D2D" transform="translate(53,74)"/>
<path d="M0 0 C0.66 0.66 1.32 1.32 2 2 C1.38511719 2.36351562 0.77023438 2.72703125 0.13671875 3.1015625 C-5.08284435 6.21415903 -5.08284435 6.21415903 -8.5 11.0625 C-10.48563121 14.95102778 -12.89209372 15.90783408 -16.703125 17.83203125 C-19.65133145 19.33120426 -22.28365178 21.11945123 -25 23 C-25.33 22.34 -25.66 21.68 -26 21 C-24.05957615 16.85873813 -21.70047171 14.76327143 -17.9296875 12.265625 C-16.46208984 11.28142578 -16.46208984 11.28142578 -14.96484375 10.27734375 C-13.94519531 9.60832031 -12.92554688 8.93929687 -11.875 8.25 C-9.85117192 6.90162772 -7.82771376 5.55269998 -5.8046875 4.203125 C-4.90733887 3.61176758 -4.00999023 3.02041016 -3.08544922 2.41113281 C-1.10153936 1.16465971 -1.10153936 1.16465971 0 0 Z " fill="#BD103C" transform="translate(64,60)"/>
<path d="M0 0 C0.99 0 1.98 0 3 0 C2.85796663 2.37528151 2.71148388 4.75015251 2.5625 7.125 C2.50352539 8.12273437 2.50352539 8.12273437 2.44335938 9.140625 C2.187848 13.15018817 1.73217587 17.04994196 1 21 C1.9075 20.649375 2.815 20.29875 3.75 19.9375 C6.87758436 19.03531221 8.05208081 18.86618493 11 20 C10.67 20.99 10.34 21.98 10 23 C9.67 22.34 9.34 21.68 9 21 C6.03 21.66 3.06 22.32 0 23 C-0.33 24.32 -0.66 25.64 -1 27 C-2.0625 25.1875 -2.0625 25.1875 -3 23 C-2.505 21.515 -2.505 21.515 -2 20 C-1.34 20 -0.68 20 0 20 C-0.16242187 19.49855469 -0.32484375 18.99710938 -0.4921875 18.48046875 C-1.18572596 15.09280012 -1.14464599 11.7538222 -1.125 8.3125 C-1.12886719 7.62349609 -1.13273437 6.93449219 -1.13671875 6.22460938 C-1.12669335 1.12669335 -1.12669335 1.12669335 0 0 Z " fill="#F7B401" transform="translate(34,70)"/>
<path d="M0 0 C0.33 0 0.66 0 1 0 C0.40541068 6.89723612 -0.84607668 11.45947506 -5.4375 16.875 C-8 19 -8 19 -12 19 C-12 17.02 -12 15.04 -12 13 C-11.40445313 12.93683594 -10.80890625 12.87367187 -10.1953125 12.80859375 C-7.08572604 11.66324785 -6.44530498 9.92768998 -4.875 7.0625 C-2.14239482 2.14239482 -2.14239482 2.14239482 0 0 Z " fill="#E70148" transform="translate(74,85)"/>
<path d="M0 0 C1.32 0.33 2.64 0.66 4 1 C4.66 3.31 5.32 5.62 6 8 C4.22510401 10.24197388 3.37824511 10.94326323 0.5 11.375 C-2 11 -2 11 -3.8125 9.9375 C-5.60842137 7.00731249 -5.18977574 4.3527047 -5 1 C-3.68 1 -2.36 1 -1 1 C-1 1.66 -1 2.32 -1 3 C0.32 2.67 1.64 2.34 3 2 C2.01 2 1.02 2 0 2 C0 1.34 0 0.68 0 0 Z " fill="#5274A9" transform="translate(73,44)"/>
<path d="M0 0 C2.1519437 3.22791555 2.20086443 4.28400809 2 8 C1.34 8 0.68 8 0 8 C0 7.34 0 6.68 0 6 C-0.66 6 -1.32 6 -2 6 C-2.16873478 7.43725871 -2.33490737 8.87481838 -2.5 10.3125 C-2.5928125 11.11300781 -2.685625 11.91351563 -2.78125 12.73828125 C-3.04813463 15.11896555 -3.04813463 15.11896555 -3 18 C-3 19.32 -3 20.64 -3 22 C-3.66 22 -4.32 22 -5 22 C-5.12375 23.134375 -5.2475 24.26875 -5.375 25.4375 C-5.58125 26.613125 -5.7875 27.78875 -6 29 C-6.66 29.33 -7.32 29.66 -8 30 C-8.68976396 19.02125697 -6.30791775 10.60480355 -1 1 C-0.67 0.67 -0.34 0.34 0 0 Z M-1 8 C-0.01 8.495 -0.01 8.495 1 9 C0.67 9.66 0.34 10.32 0 11 C-0.33 10.01 -0.66 9.02 -1 8 Z " fill="#959121" transform="translate(30,74)"/>
<path d="M0 0 C2.9375 1.625 2.9375 1.625 6 4 C6.875 7.25 6.875 7.25 7 10 C6.071875 10.556875 5.14375 11.11375 4.1875 11.6875 C1.02465772 13.98211107 -0.18112626 15.63508359 -2 19 C-2.66 19.33 -3.32 19.66 -4 20 C-2.96263339 16.16972328 -1.83209582 12.54154771 -0.3125 8.875 C0.97372554 5.56940037 1.18519342 3.4478354 0 0 Z " fill="#A6BFE5" transform="translate(90,35)"/>
<path d="M0 0 C-0.47474063 4.2726657 -2.84334968 6.273802 -6 9 C-8.8125 10.3125 -8.8125 10.3125 -11 11 C-11 11.66 -11 12.32 -11 13 C-8.69 13.33 -6.38 13.66 -4 14 C-4 14.33 -4 14.66 -4 15 C-10.435 15.495 -10.435 15.495 -17 16 C-16.01 15.67 -15.02 15.34 -14 15 C-13.39938767 13.09821215 -13.39938767 13.09821215 -13 11 C-12.34 10.01 -11.68 9.02 -11 8 C-10.34 8 -9.68 8 -9 8 C-8.7525 7.05125 -8.505 6.1025 -8.25 5.125 C-7 2 -7 2 -5.0625 0.625 C-3 0 -3 0 0 0 Z " fill="#F20652" transform="translate(39,54)"/>
<path d="M0 0 C4.28477792 2.30718811 7.72291137 4.32966073 11 8 C10.67 8.66 10.34 9.32 10 10 C8.02 8.35 6.04 6.7 4 5 C4.02320312 5.7734375 4.04640625 6.546875 4.0703125 7.34375 C4.17928906 13.63325438 3.85126093 18.98340199 2 25 C1.67 25 1.34 25 1 25 C1.00523682 24.38479492 1.01047363 23.76958984 1.01586914 23.13574219 C1.03669371 20.34050524 1.04967759 17.54528464 1.0625 14.75 C1.07087891 13.78191406 1.07925781 12.81382813 1.08789062 11.81640625 C1.09111328 10.88183594 1.09433594 9.94726562 1.09765625 8.984375 C1.10289307 8.12553711 1.10812988 7.26669922 1.11352539 6.38183594 C1.00539986 4.11329256 0.63582423 2.17368285 0 0 Z " fill="#D3E0F2" transform="translate(83,28)"/>
<path d="M0 0 C0.66 0.33 1.32 0.66 2 1 C-12.78947368 9.36842105 -12.78947368 9.36842105 -22 9 C-22 8.67 -22 8.34 -22 8 C-20.02 8 -18.04 8 -16 8 C-15.67 6.02 -15.34 4.04 -15 2 C-14.41992188 2.02320312 -13.83984375 2.04640625 -13.2421875 2.0703125 C-8.33373905 2.183709 -4.66058357 1.70509155 0 0 Z " fill="#A16317" transform="translate(46,96)"/>
<path d="M0 0 C0 3 0 3 -1.35546875 4.5 C-1.96003906 4.995 -2.56460938 5.49 -3.1875 6 C-3.82429688 6.52207031 -4.46109375 7.04414062 -5.1171875 7.58203125 C-7.31269288 9.23549277 -9.64517789 10.58710673 -12 12 C-12.99 13.485 -12.99 13.485 -14 15 C-16.125 15.6875 -16.125 15.6875 -18 16 C-17.34 13.69 -16.68 11.38 -16 9 C-15.1646875 8.938125 -15.1646875 8.938125 -14.3125 8.875 C-11.64648704 8.09156212 -11.64648704 8.09156212 -9.5625 4.9375 C-7 2 -7 2 -4.3125 1.75 C-3.1678125 1.87375 -3.1678125 1.87375 -2 2 C-1.34 1.34 -0.68 0.68 0 0 Z " fill="#B3C7E7" transform="translate(82,57)"/>
<path d="M0 0 C0.66 0.33 1.32 0.66 2 1 C-0.9214508 4.94923831 -4.16591337 7.98977816 -8.0625 10.9375 C-8.62960693 11.36844971 -9.19671387 11.79939941 -9.78100586 12.2434082 C-14.81637802 15.99342242 -20.07988514 19.815784 -26 22 C-28.30859375 21.64453125 -28.30859375 21.64453125 -30 21 C-26.82261922 18.98765884 -23.57552561 17.30581732 -20.1875 15.6875 C-15.32939278 13.28371144 -11.1942628 10.4128905 -7 7 C-6.40832031 6.53078125 -5.81664063 6.0615625 -5.20703125 5.578125 C-2.15445386 3.17230318 -2.15445386 3.17230318 0 0 Z " fill="#839DD0" transform="translate(84,61)"/>
<path d="M0 0 C2.05382532 4.10765063 -0.02038052 9.67616228 -1 14 C-1.83704517 16.21044939 -2.76391851 17.97732121 -4 20 C-4.99 20 -5.98 20 -7 20 C-7.33 20.99 -7.66 21.98 -8 23 C-7.22225866 17.94468132 -6.14051606 12.98283716 -5 8 C-4.34 8 -3.68 8 -3 8 C-3 8.66 -3 9.32 -3 10 C-2.34 10 -1.68 10 -1 10 C-1.66 9.01 -2.32 8.02 -3 7 C-2.6758631 3.67759676 -2.39223697 2.39223697 0 0 Z M-4 10 C-3.67 10.99 -3.34 11.98 -3 13 C-3 12.01 -3 11.02 -3 10 C-3.33 10 -3.66 10 -4 10 Z " fill="#FCEC02" transform="translate(33,72)"/>
<path d="M0 0 C0.99 0.99 1.98 1.98 3 3 C-0.17582803 5.82295825 -1.83821871 6.09909003 -6 6 C-8.01822402 6.60927518 -10.02416285 7.26480478 -12 8 C-12 7.01 -12 6.02 -12 5 C-13.32 5.33 -14.64 5.66 -16 6 C-15.625 4.0625 -15.625 4.0625 -15 2 C-14.34 1.67 -13.68 1.34 -13 1 C-12.01 1.99 -11.02 2.98 -10 4 C-9.01 3.34 -8.02 2.68 -7 2 C-3.8125 1.875 -3.8125 1.875 -1 2 C-0.67 1.34 -0.34 0.68 0 0 Z " fill="#AEC6E6" transform="translate(57,61)"/>
<path d="M0 0 C0.33 0 0.66 0 1 0 C1.94690581 7.10179356 -1.11388009 12.17973325 -5 18 C-6.29491199 19.37067812 -7.61801735 20.71715959 -9 22 C-9.66 21.67 -10.32 21.34 -11 21 C-10.3125 18.625 -10.3125 18.625 -9 16 C-6.375 14.6875 -6.375 14.6875 -4 14 C-4 11.69 -4 9.38 -4 7 C-3.01 6.67 -2.02 6.34 -1 6 C-0.67 4.02 -0.34 2.04 0 0 Z " fill="#627BB2" transform="translate(97,44)"/>
<path d="M0 0 C0.680625 0.18175781 1.36125 0.36351562 2.0625 0.55078125 C3.0834375 0.80408203 3.0834375 0.80408203 4.125 1.0625 C6.43145296 2.01577189 7.57858431 2.85103644 9.0625 4.86328125 C9.35546875 7.125 9.35546875 7.125 9.25 9.55078125 C9.22292969 10.35902344 9.19585937 11.16726562 9.16796875 12 C9.11576172 12.92232422 9.11576172 12.92232422 9.0625 13.86328125 C8.0725 14.35828125 8.0725 14.35828125 7.0625 14.86328125 C6.794375 13.81140625 6.52625 12.75953125 6.25 11.67578125 C5.17416564 8.22178672 4.34756983 5.65614437 2.0625 2.86328125 C-1.17935935 2.19828446 -2.4741313 2.56271777 -5.25 4.36328125 C-5.806875 4.85828125 -6.36375 5.35328125 -6.9375 5.86328125 C-5.50030843 2.54668532 -4.12151538 -0.29083274 0 0 Z " fill="#2A3D6F" transform="translate(72.9375,39.13671875)"/>
<path d="M0 0 C0.66 0 1.32 0 2 0 C1.67 0.99 1.34 1.98 1 3 C0.814375 3.845625 0.62875 4.69125 0.4375 5.5625 C-1 8 -1 8 -4.75 9.3125 C-8.19230166 9.98462824 -11.48898098 10.17555095 -15 10 C-14.34 8.02 -13.68 6.04 -13 4 C-12.67 4.99 -12.34 5.98 -12 7 C-9.66834966 7.33498301 -9.66834966 7.33498301 -7 7 C-4.81222534 5.0624994 -4.81222534 5.0624994 -3 3 C-2.34 3 -1.68 3 -1 3 C-0.67 2.01 -0.34 1.02 0 0 Z " fill="#DFE9F6" transform="translate(62,50)"/>
<path d="M0 0 C1.62490954 -0.02698189 3.24994633 -0.04638757 4.875 -0.0625 C5.77992187 -0.07410156 6.68484375 -0.08570312 7.6171875 -0.09765625 C10 0 10 0 12 1 C14.01583784 4.09917926 14.15624039 6.13756538 13.625 9.75 C13.45871094 10.94882812 13.45871094 10.94882812 13.2890625 12.171875 C13.14597656 13.07679687 13.14597656 13.07679687 13 14 C12.01 13.34 11.02 12.68 10 12 C10 11.34 10 10.68 10 10 C10.66 10 11.32 10 12 10 C12 8.68 12 7.36 12 6 C11.01 5.67 10.02 5.34 9 5 C9 4.34 9 3.68 9 3 C5.30458414 2.04975021 2.69541586 2.04975021 -1 3 C-0.67 2.01 -0.34 1.02 0 0 Z " fill="#E3EEF9" transform="translate(71,27)"/>
<path d="M0 0 C0.99 0.33 1.98 0.66 3 1 C2.2575 1.70125 1.515 2.4025 0.75 3.125 C-2.08447466 5.91270179 -2.08447466 5.91270179 -4.125 9.25 C-6 12 -6 12 -9 13 C-9.73323796 15.01508358 -9.73323796 15.01508358 -10 17 C-10.66 17 -11.32 17 -12 17 C-12.26414968 14.02184184 -12.29168974 12.45140458 -10.64453125 9.90234375 C-3.49132632 2.23056959 -3.49132632 2.23056959 0 0 Z " fill="#A14247" transform="translate(30,52)"/>
<path d="M0 0 C0.66 0.66 1.32 1.32 2 2 C1.06027344 2.58007812 1.06027344 2.58007812 0.1015625 3.171875 C-0.71570313 3.69265625 -1.53296875 4.2134375 -2.375 4.75 C-3.18710937 5.26046875 -3.99921875 5.7709375 -4.8359375 6.296875 C-7.08555679 8.0673335 -7.95906848 9.36907419 -9 12 C-9.33 11.34 -9.66 10.68 -10 10 C-10.66 10 -11.32 10 -12 10 C-12 10.66 -12 11.32 -12 12 C-12.639375 12.103125 -13.27875 12.20625 -13.9375 12.3125 C-14.9584375 12.6528125 -14.9584375 12.6528125 -16 13 C-16.33 13.99 -16.66 14.98 -17 16 C-18.32 15.67 -19.64 15.34 -21 15 C-14.05611112 9.91749578 -7.06910642 4.90697192 0 0 Z " fill="#BD0F20" transform="translate(64,60)"/>
<path d="M0 0 C0.99 0.33 1.98 0.66 3 1 C2.04956626 2.33897583 1.08940853 3.67105427 0.125 5 C-0.40867187 5.7425 -0.94234375 6.485 -1.4921875 7.25 C-1.98976563 7.8275 -2.48734375 8.405 -3 9 C-3.66 9 -4.32 9 -5 9 C-5 9.66 -5 10.32 -5 11 C-3.68 11.33 -2.36 11.66 -1 12 C-3.31 12 -5.62 12 -8 12 C-7.84595887 6.91664275 -4.97931568 4.64245282 -1.49609375 1.35546875 C-1.00238281 0.90816406 -0.50867187 0.46085937 0 0 Z " fill="#A01220" transform="translate(54,76)"/>
<path d="M0 0 C1.65 1.65 3.3 3.3 5 5 C4.21625 5.61875 3.4325 6.2375 2.625 6.875 C0.03162353 8.89858661 0.03162353 8.89858661 -2 11 C-2.61875 10.835 -3.2375 10.67 -3.875 10.5 C-6.59954614 9.85893032 -7.66457128 10.58206113 -10 12 C-10 11.01 -10 10.02 -10 9 C-9.2575 8.855625 -8.515 8.71125 -7.75 8.5625 C-5.47972261 8.09812508 -3.24240521 7.58136431 -1 7 C-0.67 4.69 -0.34 2.38 0 0 Z " fill="#BFD6ED" transform="translate(64,52)"/>
<path d="M0 0 C0 0.66 0 1.32 0 2 C-0.73605469 2.25394531 -1.47210938 2.50789063 -2.23046875 2.76953125 C-3.20628906 3.11371094 -4.18210937 3.45789062 -5.1875 3.8125 C-6.15042969 4.14894531 -7.11335938 4.48539063 -8.10546875 4.83203125 C-10.94950298 5.97962401 -13.41871912 7.35307674 -16 9 C-14.73317448 5.09395463 -13.56716435 3.09833197 -10 1 C-6.69236883 -0.2127981 -3.49510313 -0.07943416 0 0 Z " fill="#F8513F" transform="translate(43,51)"/>
<path d="M0 0 C0 0.99 0 1.98 0 3 C-0.99 3 -1.98 3 -3 3 C-3.12375 3.5775 -3.2475 4.155 -3.375 4.75 C-4.00648824 7.02335767 -4.88858191 8.9253529 -6 11 C-6.33 11 -6.66 11 -7 11 C-7.268125 10.05125 -7.53625 9.1025 -7.8125 8.125 C-8.74986588 4.74732727 -8.74986588 4.74732727 -12 3 C-8.97265625 2.26757812 -8.97265625 2.26757812 -5.9453125 1.53515625 C-0.3649635 0 -0.3649635 0 0 0 Z " fill="#790549" transform="translate(69,85)"/>
<path d="M0 0 C1.32 0.33 2.64 0.66 4 1 C2.76238177 2.65516419 1.50942545 4.29886798 0.25 5.9375 C-0.44609375 6.85402344 -1.1421875 7.77054688 -1.859375 8.71484375 C-4.02720696 11.02904392 -4.88794026 11.79593051 -8 12 C-10.75 11.0625 -10.75 11.0625 -13 10 C-11 9 -11 9 -8.75 8.875 C-4.60486135 7.55609225 -2.47852097 4.47503971 0 1 C0 0.67 0 0.34 0 0 Z " fill="#F31053" transform="translate(96,18)"/>
<path d="M0 0 C1.49080078 0.02707031 1.49080078 0.02707031 3.01171875 0.0546875 C3.77097656 0.07789063 4.53023437 0.10109375 5.3125 0.125 C7.71430965 4.38535283 7.61988073 7.28375348 7.3125 12.125 C6.3225 13.61 6.3225 13.61 5.3125 15.125 C5.36132812 12.24414062 5.36132812 12.24414062 5.41015625 9.36328125 C5.34868697 6.64212168 5.34868697 6.64212168 4.3125 2.125 C0.0225 2.125 -4.2675 2.125 -8.6875 2.125 C-5.26655758 -0.15562828 -4.00562778 -0.09425007 0 0 Z " fill="#871750" transform="translate(98.6875,15.875)"/>
<path d="M0 0 C-3.44615385 5.78461538 -3.44615385 5.78461538 -6.25 6.875 C-6.8275 6.91625 -7.405 6.9575 -8 7 C-8.33 4.69 -8.66 2.38 -9 0 C-3.375 -1.125 -3.375 -1.125 0 0 Z " fill="#CF7E0C" transform="translate(56,89)"/>
<path d="M0 0 C0.66 1.32 1.32 2.64 2 4 C0.68 3.67 -0.64 3.34 -2 3 C-2 3.66 -2 4.32 -2 5 C-1.01 5 -0.02 5 1 5 C0.67 5.66 0.34 6.32 0 7 C-0.99 6.67 -1.98 6.34 -3 6 C-3 5.34 -3 4.68 -3 4 C-4.32 4 -5.64 4 -7 4 C-7 5.98 -7 7.96 -7 10 C-7.33 10 -7.66 10 -8 10 C-8.36272727 3.59181818 -8.36272727 3.59181818 -6.8125 1.0625 C-4.43958382 -0.32851983 -2.70313576 -0.21917317 0 0 Z " fill="#4E6D9F" transform="translate(75,41)"/>
<path d="M0 0 C-0.75 2.9375 -0.75 2.9375 -2 6 C-5.42357596 7.90198664 -9.2953927 6.64118203 -13 6 C-9.09130466 2.84297684 -5.1385061 0 0 0 Z " fill="#AE4F5B" transform="translate(85,20)"/>
<path d="M0 0 C0.99 0.33 1.98 0.66 3 1 C0.33246846 4.55670872 -2.25201345 7.56380874 -6 10 C-8.3125 9.75 -8.3125 9.75 -10 9 C-10 8.01 -10 7.02 -10 6 C-8.865625 5.731875 -7.73125 5.46375 -6.5625 5.1875 C-5.386875 4.795625 -4.21125 4.40375 -3 4 C-2.67 3.01 -2.34 2.02 -2 1 C-1.34 0.67 -0.68 0.34 0 0 Z " fill="#5670A7" transform="translate(85,66)"/>
<path d="M0 0 C0 3 0 3 -1.375 5.0625 C-3.64966982 9.17440314 -4.2405491 13.39862102 -5 18 C-5.99 18 -6.98 18 -8 18 C-7.8576876 10.31513055 -4.66758993 5.94721641 0 0 Z " fill="#C6D7EB" transform="translate(50,46)"/>
<path d="M0 0 C0.99 0 1.98 0 3 0 C3.33 2.97 3.66 5.94 4 9 C2.35 9.66 0.7 10.32 -1 11 C-1.14285714 3.57142857 -1.14285714 3.57142857 0 0 Z " fill="#8DAFDC" transform="translate(40,66)"/>
<path d="M0 0 C-1.98 2.31 -3.96 4.62 -6 7 C-6.66 5.68 -7.32 4.36 -8 3 C-8.66 3 -9.32 3 -10 3 C-10 2.34 -10 1.68 -10 1 C-5.8922935 -0.58706842 -4.40767604 -1.10191901 0 0 Z " fill="#F95051" transform="translate(98,18)"/>
<path d="M0 0 C0.99 0 1.98 0 3 0 C2.67 3.96 2.34 7.92 2 12 C1.01 12 0.02 12 -1 12 C-1.02687279 10.18757948 -1.04633715 8.37504767 -1.0625 6.5625 C-1.07410156 5.55316406 -1.08570313 4.54382813 -1.09765625 3.50390625 C-1 1 -1 1 0 0 Z " fill="#F2C603" transform="translate(34,70)"/>
<path d="M0 0 C1.9375 0.375 1.9375 0.375 4 1 C5.63033209 4.26066418 5.3432424 7.86484808 5.5234375 11.46875 C5.68070313 12.3040625 5.83796875 13.139375 6 14 C6.99 14.66 7.98 15.32 9 16 C7.68 16 6.36 16 5 16 C3.56976822 11.32790951 2.59619955 6.86896303 2 2 C0.68 2.33 -0.64 2.66 -2 3 C-1.34 2.01 -0.68 1.02 0 0 Z " fill="#0B0B45" transform="translate(56,89)"/>
<path d="M0 0 C0.66 0 1.32 0 2 0 C1.814375 0.61875 1.62875 1.2375 1.4375 1.875 C0.76313824 4.04160178 0.76313824 4.04160178 2 6 C0.35 6.33 -1.3 6.66 -3 7 C-3.33 8.32 -3.66 9.64 -4 11 C-5.98 11.33 -7.96 11.66 -10 12 C-7.21991489 8.39618597 -4.215198 5.215198 -1 2 C-0.67 1.34 -0.34 0.68 0 0 Z " fill="#6F8DC6" transform="translate(86,60)"/>
<path d="M0 0 C1.65 0 3.3 0 5 0 C2.2167907 5.43614072 -0.40783094 9.93265026 -5 14 C-5 13.01 -5 12.02 -5 11 C-4.34 11 -3.68 11 -3 11 C-2.67 9.02 -2.34 7.04 -2 5 C-1.34 5 -0.68 5 0 5 C0 3.35 0 1.7 0 0 Z " fill="#B3004D" transform="translate(69,85)"/>
<path d="M0 0 C1.39118517 5.9441548 0.69155567 10.47460378 -2 16 C-2.66 16.33 -3.32 16.66 -4 17 C-3.01 13.37 -2.02 9.74 -1 6 C-2.65 6.33 -4.3 6.66 -6 7 C-5.16086207 4.48258621 -3.22783875 0 0 0 Z " fill="#690749" transform="translate(76,79)"/>
<path d="M0 0 C0.33 1.32 0.66 2.64 1 4 C-2.21451269 5.60725635 -5.43612536 5.05748185 -9 5 C-8.67 4.01 -8.34 3.02 -8 2 C-6.15234375 1.26953125 -6.15234375 1.26953125 -3.9375 0.8125 C-3.20402344 0.65394531 -2.47054687 0.49539062 -1.71484375 0.33203125 C-1.14894531 0.22246094 -0.58304688 0.11289062 0 0 Z " fill="#8F0557" transform="translate(36,63)"/>
<path d="M0 0 C-7.87746171 3.25601751 -7.87746171 3.25601751 -12.5625 2.1875 C-13.366875 1.795625 -14.17125 1.40375 -15 1 C-14.67 0.34 -14.34 -0.32 -14 -1 C-11.85546875 -1.484375 -11.85546875 -1.484375 -9.1875 -1.75 C-7.87845703 -1.89695312 -7.87845703 -1.89695312 -6.54296875 -2.046875 C-3.79198442 -1.99616561 -2.32873426 -1.41135409 0 0 Z " fill="#6F2031" transform="translate(64,86)"/>
<path d="M0 0 C0 3.51716303 -0.82445585 4.37121748 -3 7 C-3.33 5.68 -3.66 4.36 -4 3 C-7.3 3.33 -10.6 3.66 -14 4 C-11.5162463 1.5162463 -10.43222478 1.67196884 -7 1.4375 C-3.36281225 1.22782477 -3.36281225 1.22782477 0 0 Z " fill="#511E4B" transform="translate(47,48)"/>
<path d="M0 0 C0.66 0 1.32 0 2 0 C2 0.99 2 1.98 2 3 C3.98 3.66 5.96 4.32 8 5 C7.01 5.99 6.02 6.98 5 8 C2.525 7.01 2.525 7.01 0 6 C0 4.02 0 2.04 0 0 Z " fill="#6B93C7" transform="translate(69,46)"/>
<path d="M0 0 C5.94 0 11.88 0 18 0 C16.35 1.65 14.7 3.3 13 5 C13 4.34 13 3.68 13 3 C12.14535156 2.95101562 11.29070313 2.90203125 10.41015625 2.8515625 C8.75306641 2.73941406 8.75306641 2.73941406 7.0625 2.625 C5.96035156 2.55539063 4.85820312 2.48578125 3.72265625 2.4140625 C2.82417969 2.27742188 1.92570312 2.14078125 1 2 C0.67 1.34 0.34 0.68 0 0 Z " fill="#1C0C4E" transform="translate(18,69)"/>
<path d="M0 0 C0.71484375 1.671875 0.71484375 1.671875 1 4 C-0.43359375 6.578125 -0.43359375 6.578125 -2.4375 9.25 C-3.09621094 10.14203125 -3.75492188 11.0340625 -4.43359375 11.953125 C-4.95050781 12.62859375 -5.46742187 13.3040625 -6 14 C-6.33 13.34 -6.66 12.68 -7 12 C-6.22265625 10.2734375 -6.22265625 10.2734375 -5.0625 8.375 C-4.381875 7.26125 -3.70125 6.1475 -3 5 C-3.99 5.495 -3.99 5.495 -5 6 C-3.63016497 2.83884224 -3.0109362 2.0072908 0 0 Z " fill="#B1BBD0" transform="translate(53,42)"/>
<path d="M0 0 C2.91517292 1.07401108 4.77810176 1.77810176 7 4 C7.66 3.67 8.32 3.34 9 3 C9.12375 3.78375 9.2475 4.5675 9.375 5.375 C9.79117993 8.14057822 9.79117993 8.14057822 12 10 C12.125 12.625 12.125 12.625 12 15 C11.34 14.01 10.68 13.02 10 12 C6.92485324 7.72115294 3.88729243 3.58826993 0 0 Z " fill="#A10D3C" transform="translate(86,29)"/>
<path d="M0 0 C0.94875 0.04125 1.8975 0.0825 2.875 0.125 C2.32776317 3.49962715 1.8201 5.20735 -0.125 8.125 C-0.785 8.125 -1.445 8.125 -2.125 8.125 C-2.125 7.465 -2.125 6.805 -2.125 6.125 C-1.465 6.125 -0.805 6.125 -0.125 6.125 C-0.455 5.135 -0.785 4.145 -1.125 3.125 C-3.14008358 2.39176204 -3.14008358 2.39176204 -5.125 2.125 C-3.125 0.125 -3.125 0.125 0 0 Z " fill="#B20554" transform="translate(37.125,60.875)"/>
<path d="M0 0 C-1 3 -1 3 -3.3125 4.375 C-6.31639952 6.19131134 -7.94543592 8.18448626 -10 11 C-10.33 9.68 -10.66 8.36 -11 7 C-9.87720538 6.01830524 -8.75168527 5.03972702 -7.625 4.0625 C-6.68527344 3.24458984 -6.68527344 3.24458984 -5.7265625 2.41015625 C-3.71547429 0.76761588 -2.62199195 0 0 0 Z " fill="#AD045B" transform="translate(103,23)"/>
<path d="M0 0 C0.99 0.33 1.98 0.66 3 1 C3 2.32 3 3.64 3 5 C2.34 5 1.68 5 1 5 C0.87625 6.134375 0.7525 7.26875 0.625 8.4375 C0.41875 9.613125 0.2125 10.78875 0 12 C-0.99 12.495 -0.99 12.495 -2 13 C-2 9.04 -2 5.08 -2 1 C-1.34 0.67 -0.68 0.34 0 0 Z " fill="#8C8521" transform="translate(24,91)"/>
<path d="M0 0 C-0.33 2.31 -0.66 4.62 -1 7 C-1.66 6.34 -2.32 5.68 -3 5 C-3.33 5.33 -3.66 5.66 -4 6 C-5.66617115 6.04063832 -7.33388095 6.042721 -9 6 C-3.2 0 -3.2 0 0 0 Z " fill="#390E2D" transform="translate(78,76)"/>
<path d="M0 0 C0.66 0 1.32 0 2 0 C1.67 0.99 1.34 1.98 1 3 C0.773125 3.70125 0.54625 4.4025 0.3125 5.125 C-1 7 -1 7 -4.125 7.75 C-5.548125 7.87375 -5.548125 7.87375 -7 8 C-6.25 6.0625 -6.25 6.0625 -5 4 C-3.67405895 3.63837971 -2.34061543 3.30271961 -1 3 C-0.67 2.01 -0.34 1.02 0 0 Z " fill="#E9EFF9" transform="translate(62,50)"/>
<path d="M0 0 C0.99 0.66 1.98 1.32 3 2 C2.71872579 3.48117801 2.42466268 4.95993249 2.125 6.4375 C1.96257812 7.26121094 1.80015625 8.08492187 1.6328125 8.93359375 C1.42398438 9.61550781 1.21515625 10.29742187 1 11 C0.01 11.495 0.01 11.495 -1 12 C-1.33 8.7 -1.66 5.4 -2 2 C-1.34 2 -0.68 2 0 2 C0 1.34 0 0.68 0 0 Z " fill="#820543" transform="translate(99,37)"/>
<path d="M0 0 C0.33 0 0.66 0 1 0 C0.67 2.64 0.34 5.28 0 8 C-1.65 8 -3.3 8 -5 8 C-3.6299034 5.0490227 -2.06764583 2.51713405 0 0 Z " fill="#E5004E" transform="translate(74,85)"/>
<path d="M0 0 C2.97 0.495 2.97 0.495 6 1 C6 1.66 6 2.32 6 3 C0.25 6 0.25 6 -2 6 C-1.34 4.02 -0.68 2.04 0 0 Z " fill="#CCDFF2" transform="translate(69,58)"/>
<path d="M0 0 C0 3.99904969 -1.72586967 5.80200422 -4 9 C-4.99 8.67 -5.98 8.34 -7 8 C-5.98823563 4.59679258 -5.35156418 3.24274669 -2.375 1.1875 C-1.59125 0.795625 -0.8075 0.40375 0 0 Z " fill="#4A639A" transform="translate(93,57)"/>
<path d="M0 0 C1.5625 1.25 1.5625 1.25 3 3 C2.875 5.0625 2.875 5.0625 2 7 C1.01 7.66 0.02 8.32 -1 9 C-1.80967438 6.08517222 -2.21845993 4.53886783 -1.0625 1.6875 C-0.711875 1.130625 -0.36125 0.57375 0 0 Z " fill="#97BEE8" transform="translate(94,38)"/>
<path d="M0 0 C-0.33 1.98 -0.66 3.96 -1 6 C-3.4375 5.625 -3.4375 5.625 -6 5 C-6.33 4.34 -6.66 3.68 -7 3 C-6.01 3 -5.02 3 -4 3 C-4 2.34 -4 1.68 -4 1 C-2 0 -2 0 0 0 Z " fill="#FC9300" transform="translate(31,98)"/>
<path d="M0 0 C0.33 0.66 0.66 1.32 1 2 C-0.98 4.97 -0.98 4.97 -3 8 C-4.32 7.67 -5.64 7.34 -7 7 C-4.78071806 4.09197539 -3.07030857 2.04687238 0 0 Z " fill="#971B2B" transform="translate(61,68)"/>
<path d="M0 0 C1.32 0 2.64 0 4 0 C4 0.66 4 1.32 4 2 C5.32 2.33 6.64 2.66 8 3 C8 3.99 8 4.98 8 6 C5.525 5.01 5.525 5.01 3 4 C3 3.01 3 2.02 3 1 C2.34 1 1.68 1 1 1 C1 2.98 1 4.96 1 7 C0.67 7 0.34 7 0 7 C0 4.69 0 2.38 0 0 Z " fill="#5F83B7" transform="translate(68,45)"/>
<path d="M0 0 C4.28477792 2.30718811 7.72291137 4.32966073 11 8 C10.67 8.66 10.34 9.32 10 10 C8.88625 8.7934375 8.88625 8.7934375 7.75 7.5625 C5.24695171 5.23011409 4.2819045 4.36465606 1 4 C0.67 2.68 0.34 1.36 0 0 Z " fill="#BEE1F2" transform="translate(83,28)"/>
<path d="M0 0 C0.33 0.66 0.66 1.32 1 2 C-1.34375 8.5625 -1.34375 8.5625 -5 11 C-4.46884894 6.48521602 -2.63379708 3.65333143 0 0 Z " fill="#E7EEF6" transform="translate(55,43)"/>
<path d="M0 0 C0.99 0 1.98 0 3 0 C3 2.97 3 5.94 3 9 C2.01 9.495 2.01 9.495 1 10 C0.67 6.7 0.34 3.4 0 0 Z " fill="#31497D" transform="translate(79,44)"/>
<path d="M0 0 C-0.33 1.98 -0.66 3.96 -1 6 C-2.98 4.68 -4.96 3.36 -7 2 C-6 0 -6 0 -4.0625 -0.6875 C-2 -1 -2 -1 0 0 Z " fill="#B40256" transform="translate(102,35)"/>
<path d="M0 0 C1.98 0 3.96 0 6 0 C6 0.66 6 1.32 6 2 C1.05 3.485 1.05 3.485 -4 5 C-3.67 4.01 -3.34 3.02 -3 2 C-2.01 2 -1.02 2 0 2 C0 1.34 0 0.68 0 0 Z " fill="#F62647" transform="translate(37,51)"/>
<path d="M0 0 C0.33 0.99 0.66 1.98 1 3 C0.3503125 3.5878125 0.3503125 3.5878125 -0.3125 4.1875 C-2.26366224 6.28319278 -3.59010162 8.51589333 -5 11 C-5 7.5551941 -4.28787023 5.18578426 -3 2 C-2.01 1.34 -1.02 0.68 0 0 Z " fill="#92AEDD" transform="translate(94,46)"/>
<path d="M0 0 C-0.66 2.31 -1.32 4.62 -2 7 C-3.32 7.33 -4.64 7.66 -6 8 C-6 7.34 -6 6.68 -6 6 C-5.34 6 -4.68 6 -4 6 C-4 4.35 -4 2.7 -4 1 C-2 0 -2 0 0 0 Z " fill="#F76064" transform="translate(87,20)"/>
<path d="M0 0 C0.99 0 1.98 0 3 0 C1.60667426 3.36720387 0.0210714 4.9859524 -3 7 C-3 5.68 -3 4.36 -3 3 C-2.34 3 -1.68 3 -1 3 C-0.67 2.01 -0.34 1.02 0 0 Z " fill="#940848" transform="translate(69,96)"/>
<path d="M0 0 C0.99 0 1.98 0 3 0 C2.67 2.97 2.34 5.94 2 9 C1.01 9.33 0.02 9.66 -1 10 C-1 9.34 -1 8.68 -1 8 C-0.34 8 0.32 8 1 8 C0.67 5.36 0.34 2.72 0 0 Z " fill="#E59804" transform="translate(33,82)"/>
<path d="M0 0 C0.66 0 1.32 0 2 0 C0.6062718 4.43458973 -1.60582235 6.87378374 -5 10 C-3.66749209 6.4124787 -2.169283 3.1635377 0 0 Z " fill="#A71B25" transform="translate(67,58)"/>
<path d="M0 0 C0.99 0.33 1.98 0.66 3 1 C2.3125 2.9375 2.3125 2.9375 1 5 C-1.625 5.75 -1.625 5.75 -4 6 C-2.84826645 3.53199953 -1.95216435 1.95216435 0 0 Z " fill="#8790A9" transform="translate(55,38)"/>
<path d="M0 0 C0.99 0.33 1.98 0.66 3 1 C2.34 1 1.68 1 1 1 C1 1.66 1 2.32 1 3 C1.66 3 2.32 3 3 3 C3 3.99 3 4.98 3 6 C1.68 6.33 0.36 6.66 -1 7 C-1 4 -1 4 0 2 C-0.66 1.67 -1.32 1.34 -2 1 C-1.34 0.67 -0.68 0.34 0 0 Z " fill="#C4465F" transform="translate(87,18)"/>
<path d="M0 0 C0.33 0 0.66 0 1 0 C1 1.65 1 3.3 1 5 C2.32 5.33 3.64 5.66 5 6 C2.69 6 0.38 6 -2 6 C-1.125 1.125 -1.125 1.125 0 0 Z " fill="#9D1B14" transform="translate(48,82)"/>
<path d="M0 0 C1.485 0.99 1.485 0.99 3 2 C3.1875 5.625 3.1875 5.625 3 9 C2.01 9.33 1.02 9.66 0 10 C0.185625 9.0925 0.37125 8.185 0.5625 7.25 C0.95734621 4.31685676 0.94691572 2.7355343 0 0 Z " fill="#3D5A8E" transform="translate(77,46)"/>
<path d="M0 0 C0 0.33 0 0.66 0 1 C-2.64 1 -5.28 1 -8 1 C-8.33 1.99 -8.66 2.98 -9 4 C-10.32 3.67 -11.64 3.34 -13 3 C-9.21656826 -0.94792877 -5.07874402 -0.29300446 0 0 Z " fill="#9498B2" transform="translate(79,26)"/>
<path d="M0 0 C1.32 0.99 2.64 1.98 4 3 C3.34 4.65 2.68 6.3 2 8 C1.34 8 0.68 8 0 8 C0 5.36 0 2.72 0 0 Z " fill="#90351E" transform="translate(36,75)"/>
<path d="M0 0 C0.99 0 1.98 0 3 0 C3.33 2.31 3.66 4.62 4 7 C3.01 7.33 2.02 7.66 1 8 C0.67 5.36 0.34 2.72 0 0 Z " fill="#93A2D0" transform="translate(40,66)"/>
<path d="M0 0 C0.33 0.66 0.66 1.32 1 2 C1.66 2 2.32 2 3 2 C3 2.99 3 3.98 3 5 C1.68 5.33 0.36 5.66 -1 6 C-1.33 5.01 -1.66 4.02 -2 3 C-1.34 2.01 -0.68 1.02 0 0 Z " fill="#F63142" transform="translate(21,64)"/>
<path d="M0 0 C-3.75 3 -3.75 3 -6 3 C-6.33 3.66 -6.66 4.32 -7 5 C-6.625 2.5625 -6.625 2.5625 -6 0 C-3.50907189 -1.24546405 -2.58919267 -0.7767578 0 0 Z " fill="#D70059" transform="translate(34,62)"/>
<path d="M0 0 C1.65 0 3.3 0 5 0 C5.66 1.32 6.32 2.64 7 4 C4.69 3.34 2.38 2.68 0 2 C0 1.34 0 0.68 0 0 Z " fill="#415A8A" transform="translate(70,41)"/>
</svg>
